<?xml version="1.0" encoding="utf-8"?>
<!-- Generator: Adobe Illustrator 18.0.0, SVG Export Plug-In . SVG Version: 6.00 Build 0)  -->
<!DOCTYPE svg PUBLIC "-//W3C//DTD SVG 1.1//EN" "http://www.w3.org/Graphics/SVG/1.1/DTD/svg11.dtd">
<svg version="1.1" id="Layer_2" xmlns="http://www.w3.org/2000/svg" xmlns:xlink="http://www.w3.org/1999/xlink" 
	 width="1450"
	 x="0px" y="0px"
	 viewBox="0 0 1450 900"  
	 xml:space="preserve">
<path fill-rule="evenodd" clip-rule="evenodd" fill="#F6921E" d="M65.8,851.4l-27.3-46.2c-22.4-38-8.5-81.9,41.2-81.9
	c49.8,0,63.7,43.9,41.2,81.9l-27.2,46.1H65.8z"/>
<path fill-rule="evenodd" clip-rule="evenodd" fill="#C86419" d="M67.4,851.4l-24.2-46.2c-20-38-7.6-81.9,36.7-81.9
	c44.3,0,56.6,43.9,36.7,81.9l-24.2,46.1H67.4z"/>
<path fill-rule="evenodd" clip-rule="evenodd" fill="#F6921E" d="M69.6,851.4l-19.9-46.2c-16.4-38-6.2-81.9,30.1-81.9
	c36.3,0,46.4,43.9,30.1,81.9L90,851.4H69.6z"/>
<path fill-rule="evenodd" clip-rule="evenodd" fill="#C86419" d="M72.3,851.4l-14.6-46.2c-12-38-4.6-81.9,22.1-81.9
	c26.7,0,34.2,43.9,22.1,81.9l-14.6,46.1H72.3z"/>
<path fill-rule="evenodd" clip-rule="evenodd" fill="#F6921E" d="M76.7,851.4l-6.1-46.2c-5-38-1.9-81.9,9.2-81.9
	c11.1,0,14.2,43.9,9.2,81.9l-6.1,46.1H76.7z"/>
<polygon fill-rule="evenodd" clip-rule="evenodd" fill="#C86419" points="65,876 94.6,876 89.9,899.6 69.7,899.6 "/>
<polygon fill-rule="evenodd" clip-rule="evenodd" fill="#C86419" points="65.8,851.4 54.1,831.6 105.5,831.6 93.8,851.4 "/>
<polygon fill-rule="evenodd" clip-rule="evenodd" fill="#F6921E" points="91.8,890 91.3,892.8 68.4,892.8 67.8,890.1 "/>
<polygon fill-rule="evenodd" clip-rule="evenodd" fill="#C86419" points="65,876 94.6,876 94.1,878.8 65.6,878.8 "/>
<path fill-rule="evenodd" clip-rule="evenodd" fill="#F6921E" d="M53.5,831.6h52.9c-0.1,0.3-0.1,0.6-0.2,0.9H53.7
	C53.6,832.2,53.5,831.9,53.5,831.6z"/>
<polygon fill-rule="evenodd" clip-rule="evenodd" fill="#F6921E" points="65.4,877.9 94.2,877.9 94.1,878.8 65.6,878.8 "/>
<path fill-rule="evenodd" clip-rule="evenodd" fill="#F6921E" d="M75.2,878c3.3,0,5.4,7.5,0,7.5C69.8,885.5,72,878,75.2,878z"/>
<path fill-rule="evenodd" clip-rule="evenodd" fill="#F6921E" d="M75.2,878.9c0.9,0,1.6-1.3,1.3-2.2c-0.4,0-0.8,0.1-1.3,0.1
	c-0.5,0-0.9,0-1.3-0.1C73.7,877.5,74.4,878.9,75.2,878.9z"/>
<path fill-rule="evenodd" clip-rule="evenodd" fill="#F6921E" d="M66.1,878c3.3,0,5.4,7.5,0,7.5S62.9,878,66.1,878z"/>
<path fill-rule="evenodd" clip-rule="evenodd" fill="#F6921E" d="M66.1,878.9c0.9,0,1.6-1.3,1.3-2.2c-0.4,0-0.8,0.1-1.3,0.1
	c-0.5,0-0.9,0-1.3-0.1C64.6,877.5,65.2,878.9,66.1,878.9z"/>
<path fill-rule="evenodd" clip-rule="evenodd" fill="#F6921E" d="M93.5,878c3.3,0,5.4,7.5,0,7.5C88.1,885.5,90.2,878,93.5,878z"/>
<path fill-rule="evenodd" clip-rule="evenodd" fill="#F6921E" d="M93.5,878.9c0.9,0,1.6-1.3,1.3-2.2c-0.4,0-0.8,0.1-1.3,0.1
	c-0.5,0-0.9,0-1.3-0.1C91.9,877.5,92.6,878.9,93.5,878.9z"/>
<path fill-rule="evenodd" clip-rule="evenodd" fill="#F6921E" d="M84.4,878c3.3,0,5.4,7.5,0,7.5C79,885.5,81.1,878,84.4,878z"/>
<polygon fill-rule="evenodd" clip-rule="evenodd" fill="#F6921E" points="64.7,876 94.9,876 94.7,877.2 64.9,877.2 "/>
<path fill-rule="evenodd" clip-rule="evenodd" fill="#F6921E" d="M84.4,878.9c0.9,0,1.6-1.3,1.3-2.2c-0.4,0-0.8,0.1-1.3,0.1
	c-0.5,0-0.9,0-1.3-0.1C82.8,877.5,83.5,878.9,84.4,878.9z"/>
<polygon fill="#F6921E" points="96.4,869.6 96.4,866.8 105.5,832.5 105.9,832.5 96.4,869.6 "/>
<polygon fill="#F6921E" points="96.4,846.1 98.9,832.5 98.4,832.5 96.4,843.2 "/>
<polygon fill="#F6921E" points="63.5,866.8 66,876.3 65.3,876.4 63.5,869.6 63.5,866.8 "/>
<polygon fill="#F6921E" points="96.4,843.2 96.4,846.1 90.8,876.4 90,876.3 96.4,843.2 "/>
<polygon fill="#F6921E" points="96.4,866.8 93.9,876.3 94.6,876.4 96.4,869.6 96.4,866.8 "/>
<polygon fill="#F6921E" points="63.5,846.1 69.1,876.4 69.8,876.3 63.5,843.2 63.5,846.1 "/>
<polygon fill="#F6921E" points="74.3,832.5 76.9,876.3 76.1,876.4 73.9,832.5 74.3,832.5 "/>
<polygon fill="#F6921E" points="86,832.5 83.7,876.4 82.9,876.3 85.6,832.5 "/>
<polygon fill="#F6921E" points="54.4,832.5 63.5,866.8 63.5,869.6 53.9,832.5 54.4,832.5 "/>
<polygon fill="#F6921E" points="63.5,843.2 61.4,832.5 61,832.5 63.5,846.1 "/>
</svg>
