<?xml version="1.0" encoding="utf-8"?>
<!-- Generator: Adobe Illustrator 18.0.0, SVG Export Plug-In . SVG Version: 6.00 Build 0)  -->
<!DOCTYPE svg PUBLIC "-//W3C//DTD SVG 1.1//EN" "http://www.w3.org/Graphics/SVG/1.1/DTD/svg11.dtd">
<svg version="1.1" xmlns="http://www.w3.org/2000/svg" xmlns:xlink="http://www.w3.org/1999/xlink" 
	 x="0px" y="0px"
	 viewBox="0 0 1450 900" 
	 enable-background="new 0 0 1450 900" 
	 xml:space="preserve">
<g id="bg">
	<polygon fill="#000000" points="1450,900 0,900 0,0 1450,0 	"/>
</g>
<g id="bgover">
	<g id="bg_over_1_">
		
			<linearGradient id="SVGID_1_" gradientUnits="userSpaceOnUse" x1="1198.7733" y1="-1051.1" x2="1198.7733" y2="1558.9" gradientTransform="matrix(0.3448 0 0 -0.3448 311.8621 537.5518)">
			<stop  offset="0" style="stop-color:#9E1F63"/>
			<stop  offset="0.3003" style="stop-color:#961F63"/>
			<stop  offset="0.7716" style="stop-color:#7F1F62"/>
			<stop  offset="1" style="stop-color:#721F61"/>
		</linearGradient>
		<polygon opacity="0.9" fill="url(#SVGID_1_)" enable-background="new    " points="1450.5,900 0,900 0,0 1450,0 		"/>
	</g>
</g>
<g id="clouds_1_">
	<g>
		<path fill="#A8C8E9" d="M331.4,580.1c-0.3,0-0.7,0-1,0c1.2-4.4,2-9.2,2-14c0-29-24.1-52.4-53.8-52.4c-23,0-42.5,14.1-50.3,33.8
			c-6.1-3.6-13.4-5.8-21.2-5.8c-22.1,0-40.1,17.3-40.1,38.5c0,0.5,0,1,0,1.4c-18.6,4.4-32.2,18.1-32.2,34.3
			c0,19.8,20.2,35.9,45,35.9s127.3,0,151.8,0c25.2,0,45.7-16,45.7-35.9C377.2,596.1,356.7,580.1,331.4,580.1z"/>
		<path fill="#BCD3ED" d="M317.8,592c-0.3,0-0.6,0-0.8,0c1-3.7,1.7-7.7,1.7-11.7c0-24.1-20.1-43.8-44.9-43.8
			c-19.1,0-35.5,11.7-41.9,28.1c-5.2-3.1-11.2-4.9-17.7-4.9c-18.5,0-33.5,14.4-33.5,32.1c0,0.4,0,0.8,0,1.2
			c-15.5,3.6-26.8,15.1-26.8,28.7c0,16.6,16.8,29.9,37.4,29.9s106.1,0,126.4,0c21,0,38.1-13.3,38.1-29.9S338.8,592,317.8,592z"/>
	</g>
	<g>
		<path fill="#A8C8E9" d="M1167.1,693.5c0.3,0,0.5,0,0.8,0c-1-3.6-1.6-7.3-1.6-11.2c0-23.2,19.2-42,43-42c18.4,0,34,11.3,40.2,27
			c5-2.9,10.8-4.7,17-4.7c17.8,0,32.2,13.8,32.2,30.8c0,0.4,0,0.8,0,1.1c14.9,3.5,25.8,14.5,25.8,27.5c0,15.8-16.1,28.7-36,28.7
			c-19.9,0-101.9,0-121.3,0c-20.2,0-36.5-12.8-36.5-28.7S1147,693.5,1167.1,693.5z"/>
		<path fill="#BCD3ED" d="M1178.1,703c0.2,0,0.4,0,0.7,0c-0.8-3-1.3-6.1-1.3-9.3c0-19.3,16-35,35.9-35c15.3,0,28.3,9.3,33.5,22.6
			c4.1-2.5,8.9-3.8,14.2-3.8c14.8,0,26.8,11.5,26.8,25.7c0,0.3,0,0.6,0,1c12.4,2.9,21.4,12.1,21.4,22.9c0,13.2-13.4,23.9-30,23.9
			c-16.6,0-84.9,0-101.2,0c-16.9,0-30.4-10.7-30.4-23.9C1147.6,713.8,1161.2,703,1178.1,703z"/>
	</g>
</g>
<g id="one">
	<polygon fill="#B6ACC0" points="78.3,900 393.1,540.8 450.7,591.4 570.7,415 657.2,505.8 821,285.3 1263.7,900 	"/>
</g>

<g id="two">
	<polygon fill="#8E9DC0" points="0,823.2 99.9,716.7 157.5,776.8 253.5,653.7 363.6,810.2 391.2,769.6 530.3,900 0,900 	"/>
</g>
<g id="three">
	<polygon fill="#FFFFFF" points="0,823.2 99.9,716.7 120.2,824.7 253.5,653.7 307.1,871.1 391.2,769.6 432.6,900 0,900 	"/>
</g>
<g id="four">
	<polygon fill="#8E9DC0" points="803.1,900 983.5,676.2 1148.5,814.1 1221.3,776.8 1451,900 	"/>
</g>
<g id="five">
	<polygon fill="#FFFFFF" points="803.1,900 983.5,676.2 1051,864 1221.3,776.8 1328.4,900 	"/>
</g>
</svg>
