<?xml version="1.0" encoding="utf-8"?>
<!-- Generator: Adobe Illustrator 18.0.0, SVG Export Plug-In . SVG Version: 6.00 Build 0)  -->
<!DOCTYPE svg PUBLIC "-//W3C//DTD SVG 1.1//EN" "http://www.w3.org/Graphics/SVG/1.1/DTD/svg11.dtd">
<svg version="1.1" xmlns="http://www.w3.org/2000/svg" xmlns:xlink="http://www.w3.org/1999/xlink" x="0px" y="0px"
	 viewBox="0 0 481 218.1" enable-background="new 0 0 481 218.1" xml:space="preserve">
<g id="Layer_1">
</g>
<g id="Layer_2">
	<g>
		<g>
			<path fill="#F6921E" d="M366,57.5l-17.7,8.3c-0.9,0.4-1.3,0-0.9-0.9l19.5-43.5c0.2-0.4,0.4-0.6,0.6-0.7V0c-0.9,0-1.5,0.8-2,1.9
				L325.8,74c-0.5,0.8,0,1.6,0.8,1.6c0,0,25.9,0,41,0V57.2C367,57.2,366.5,57.3,366,57.5z"/>
			<path fill="#C86419" d="M369.2,57.5l17.7,8.3c0.9,0.4,1.3,0,0.9-0.9l-19.5-43.5c-0.2-0.4-0.4-0.6-0.6-0.7V0c0.9,0,1.5,0.8,2,1.9
				L409.4,74c0.5,0.8,0,1.6-0.8,1.6c0,0-25.9,0-41,0V57.2C368.2,57.2,368.7,57.3,369.2,57.5z"/>
		</g>
		<g>
			<g>
				<path fill="#D0D2D3" d="M61.3,63.2c1,0,1.6,0.6,1.6,1.6v9.1c0,1-0.6,1.6-1.6,1.6H1.6c-1,0-1.6-0.6-1.6-1.6V15.8
					c0-1,0.6-1.6,1.6-1.6h9.9c1,0,1.6,0.6,1.6,1.6v47.4H61.3z"/>
				<path fill="#D0D2D3" d="M132.5,14.2c1,0,1.6,0.6,1.6,1.6v8.8c0,1-0.6,1.6-1.6,1.6H88v11.7h42.6c1,0,1.6,0.6,1.6,1.6v8.9
					c0,1-0.6,1.6-1.6,1.6H88v13.5h45.6c1,0,1.6,0.6,1.6,1.6v9c0,1-0.6,1.6-1.6,1.6H76.5c-1,0-1.6-0.6-1.6-1.6V15.8
					c0-1,0.6-1.6,1.6-1.6H132.5z"/>
				<path fill="#D0D2D3" d="M178.9,75.5c-1,0-1.8-0.4-2.2-1.2l-32.5-58.7c-0.3-0.6,0.1-1.3,0.9-1.3h12.3c1,0,1.7,0.4,2.1,1.2
					l24.3,46.9h0.9l24.3-46.9c0.4-0.8,1.1-1.2,2-1.2h12.7c0.8,0,1,0.8,0.7,1.3l-33.4,58.7c-0.4,0.8-1.2,1.2-2.2,1.2H178.9z"/>
				<path fill="#D0D2D3" d="M245.9,14.2c1,0,1.6,0.6,1.6,1.6v58.1c0,1-0.6,1.6-1.6,1.6H236c-1,0-1.6-0.6-1.6-1.6V15.8
					c0-1,0.6-1.6,1.6-1.6H245.9z"/>
				<path fill="#D0D2D3" d="M323.2,14.2c1,0,1.6,0.6,1.6,1.6v9c0,1-0.6,1.6-1.6,1.6h-25.6v47.5c0,1-0.6,1.6-1.6,1.6h-9.9
					c-1,0-1.6-0.6-1.6-1.6V26.4h-25.6c-1,0-1.6-0.6-1.6-1.6v-9c0-1,0.6-1.6,1.6-1.6H323.2z"/>
				<g>
					<path display="none" fill="#D0D2D3" d="M366.8,4.7c0.9,0,1.6,0.3,1.9,1L406.9,74c0.3,0.8,0,1.5-0.8,1.5c0,0-67.9,0-68.8,0
						h-11.8c-0.8,0-1.2-0.8-0.8-1.6l39.7-68.2c0.4-0.7,1.1-1,2-1H366.8z M352.7,66.3h27.4l-14-41.9L352.7,66.3z"/>
				</g>
				<g>
					<path fill="#D0D2D3" d="M479.4,63.2c1,0,1.6,0.6,1.6,1.6v9.1c0,1-0.6,1.6-1.6,1.6h-59.7c-1,0-1.6-0.6-1.6-1.6V15.8
						c0-1,0.6-1.6,1.6-1.6h9.9c1,0,1.6,0.6,1.6,1.6v47.4H479.4z"/>
				</g>
			</g>
		</g>
	</g>
	<g>
		<g>
			<path fill="#F6921F" d="M12.4,157.5c4.4,0,7.9,3.2,7.9,7.3c0,2.6-1.4,4.9-3.5,6.1l3.2,6.1c0.1,0.3,0,0.5-0.3,0.5H16
				c-0.3,0-0.5-0.1-0.7-0.4l-2.5-5c-0.3,0-0.4,0-0.6,0H7.1v4.8c0,0.3-0.2,0.5-0.5,0.5H3.4c-0.3,0-0.5-0.2-0.5-0.5v-19
				c0-0.3,0.2-0.5,0.5-0.5H12.4z M12.4,168.2c2.3,0,3.6-1.5,3.6-3.3c0-1.9-1.3-3.3-3.6-3.3H7.1v6.6H12.4z"/>
			<path fill="#F6921F" d="M45,157.5c0.3,0,0.5,0.2,0.5,0.5v2.9c0,0.3-0.2,0.5-0.5,0.5H33.9v3.8h9.8c0.3,0,0.5,0.2,0.5,0.5v2.9
				c0,0.3-0.2,0.5-0.5,0.5h-9.8v4.3h11.4c0.3,0,0.5,0.2,0.5,0.5v3c0,0.3-0.2,0.5-0.5,0.5H30.1c-0.3,0-0.5-0.2-0.5-0.5v-19
				c0-0.3,0.3-0.5,0.5-0.5H45z"/>
			<path fill="#F6921F" d="M59.1,157.5c0.3,0,0.5,0.2,0.5,0.5v19c0,0.3-0.2,0.5-0.5,0.5h-3.2c-0.3,0-0.5-0.2-0.5-0.5v-19
				c0-0.3,0.2-0.5,0.5-0.5H59.1z"/>
			<path fill="#F6921F" d="M84.3,177.6c-0.3,0-0.4-0.1-0.6-0.3l-5-6.4l-5.1-7.2l-0.2,0l0.3,6.2v7.1c0,0.3-0.2,0.5-0.5,0.5h-3.1
				c-0.3,0-0.5-0.2-0.5-0.5v-19c0-0.3,0.2-0.5,0.5-0.5h2.8c0.3,0,0.5,0.1,0.7,0.3l5.5,7l4.6,6.5l0.2,0l-0.3-6.2v-7
				c0-0.3,0.2-0.5,0.5-0.5h3.1c0.3,0,0.5,0.2,0.5,0.5v19c0,0.3-0.2,0.5-0.5,0.5H84.3z"/>
			<path fill="#F6921F" d="M113,157.5c0.3,0,0.5,0.2,0.5,0.5v3c0,0.3-0.2,0.5-0.5,0.5h-10.9v3.8h9.9c0.3,0,0.5,0.2,0.5,0.5v3
				c0,0.3-0.2,0.5-0.5,0.5h-9.9v7.6c0,0.3-0.2,0.5-0.5,0.5h-3.2c-0.3,0-0.5-0.2-0.5-0.5v-19c0-0.3,0.2-0.5,0.5-0.5H113z"/>
			<path fill="#F6921F" d="M131.6,157.2c5.8,0,10.5,4.4,10.5,10.3c0,5.9-4.7,10.3-10.5,10.3c-5.8,0-10.6-4.4-10.6-10.3
				C121.1,161.7,125.8,157.2,131.6,157.2z M125.4,167.6c0,3.6,2.6,6.3,6.3,6.3c3.6,0,6.2-2.6,6.2-6.3c0-3.7-2.6-6.3-6.2-6.3
				C128,161.2,125.4,163.9,125.4,167.6z"/>
			<path fill="#F6921F" d="M160.8,157.5c4.4,0,7.9,3.2,7.9,7.3c0,2.6-1.4,4.9-3.5,6.1l3.2,6.1c0.1,0.3,0,0.5-0.3,0.5h-3.6
				c-0.3,0-0.5-0.1-0.7-0.4l-2.5-5c-0.3,0-0.4,0-0.6,0h-5.1v4.8c0,0.3-0.2,0.5-0.5,0.5h-3.2c-0.3,0-0.5-0.2-0.5-0.5v-19
				c0-0.3,0.2-0.5,0.5-0.5H160.8z M160.8,168.2c2.3,0,3.6-1.5,3.6-3.3c0-1.9-1.3-3.3-3.6-3.3h-5.3v6.6H160.8z"/>
			<path fill="#F6921F" d="M196,162c0.1,0.3,0.1,0.4-0.1,0.6l-2.3,1.8c-0.3,0.3-0.6,0.1-0.7-0.1c-1.5-2.1-3.2-3-5.7-3
				c-3.7,0-6.1,2.6-6.1,6.2s2.5,6.3,6.1,6.3c2.5,0,4.3-0.9,5.8-3.1c0.2-0.2,0.4-0.2,0.6,0l2.3,1.8c0.2,0.2,0.2,0.4,0.1,0.6
				c-1.9,3.1-5.1,4.7-8.8,4.7c-5.9,0-10.4-4.4-10.4-10.4s4.5-10.3,10.4-10.3C190.7,157.2,194.2,159,196,162z"/>
			<path fill="#F6921F" d="M208.6,157.5c0.3,0,0.5,0.2,0.5,0.5v19c0,0.3-0.2,0.5-0.5,0.5h-3.2c-0.3,0-0.5-0.2-0.5-0.5v-19
				c0-0.3,0.2-0.5,0.5-0.5H208.6z"/>
			<path fill="#F6921F" d="M233.8,177.6c-0.3,0-0.4-0.1-0.6-0.3l-5-6.4l-5.1-7.2l-0.2,0l0.3,6.2v7.1c0,0.3-0.2,0.5-0.5,0.5h-3.1
				c-0.3,0-0.5-0.2-0.5-0.5v-19c0-0.3,0.2-0.5,0.5-0.5h2.8c0.3,0,0.5,0.1,0.7,0.3l5.5,7l4.6,6.5l0.2,0l-0.3-6.2v-7
				c0-0.3,0.2-0.5,0.5-0.5h3.1c0.3,0,0.5,0.2,0.5,0.5v19c0,0.3-0.2,0.5-0.5,0.5H233.8z"/>
			<path fill="#F6921F" d="M265.2,166.7c0.3,0,0.5,0.2,0.5,0.5v9.9c0,0.3-0.2,0.5-0.5,0.5H263c-0.3,0-0.5-0.1-0.6-0.4L262,176
				c-1.4,1.3-3.3,1.9-5.7,1.9c-5.9,0-10-4.3-10-10.4c0-5.9,4.5-10.3,10.4-10.3c3.5,0,7,1.8,8.8,4.6c0.1,0.3,0.1,0.4-0.1,0.6
				l-2.3,1.7c-0.3,0.3-0.6,0.1-0.7-0.1c-1.5-1.9-3.2-2.8-5.7-2.8c-3.7,0-6.1,2.6-6.1,6.2s2.3,6.3,5.9,6.3c2.4,0,3.6-0.6,4.9-1.8
				v-4.9c0-0.3,0.2-0.5,0.5-0.5H265.2z"/>
			<g>
				<path fill="#F6921F" d="M12.6,217.3c0,0.3-0.2,0.5-0.5,0.5H8.9c-0.3,0-0.5-0.2-0.5-0.5v-4.6L0,198.2c-0.1-0.2,0-0.4,0.3-0.4h4
					c0.2,0,0.4,0.1,0.5,0.3l5.6,10.4h0.3l5.4-10.4c0.1-0.2,0.3-0.3,0.5-0.3h4c0.3,0,0.4,0.2,0.3,0.4l-8.2,14.5V217.3z"/>
				<path fill="#F6921F" d="M37.6,197.5c5.8,0,10.5,4.4,10.5,10.3c0,5.9-4.7,10.3-10.5,10.3c-5.8,0-10.6-4.4-10.6-10.3
					C27.1,202,31.8,197.5,37.6,197.5z M31.4,207.8c0,3.6,2.6,6.3,6.3,6.3c3.6,0,6.2-2.6,6.2-6.3c0-3.7-2.6-6.3-6.2-6.3
					C33.9,201.5,31.4,204.1,31.4,207.8z"/>
				<path fill="#F6921F" d="M57,198.3c0-0.3,0.2-0.5,0.5-0.5h3.2c0.3,0,0.5,0.2,0.5,0.5V209c0,3,1.7,5.1,4.7,5.1c3,0,4.7-2,4.7-5.1
					v-10.7c0-0.3,0.2-0.5,0.5-0.5h3.2c0.3,0,0.5,0.2,0.5,0.5V209c0,5.2-3.5,9.1-9,9.1c-5.5,0-9-3.9-9-9.1V198.3z"/>
				<path fill="#F6921F" d="M94.4,197.8c4.4,0,7.9,3.2,7.9,7.3c0,2.6-1.4,4.9-3.5,6.1l3.2,6.1c0.1,0.3,0,0.5-0.3,0.5H98
					c-0.3,0-0.5-0.1-0.7-0.4l-2.5-5c-0.3,0-0.4,0-0.6,0h-5.1v4.8c0,0.3-0.2,0.5-0.5,0.5h-3.2c-0.3,0-0.5-0.2-0.5-0.5v-19
					c0-0.3,0.2-0.5,0.5-0.5H94.4z M94.4,208.5c2.3,0,3.6-1.5,3.6-3.3c0-1.9-1.3-3.3-3.6-3.3h-5.3v6.6H94.4z"/>
				<path fill="#F6921F" d="M140.4,207.1c2.2,0.8,3.5,2.5,3.5,4.6c0,3.6-2.8,6.1-6.9,6.1h-10.6c-0.3,0-0.5-0.2-0.5-0.5v-19
					c0-0.3,0.2-0.5,0.5-0.5h9.8c3.8,0,6.3,2.4,6.3,5.5c0,1.6-0.8,2.9-2.1,3.6V207.1z M130.1,205.6h6.1c1.2,0,2.1-0.8,2.1-1.9
					c0-1.2-0.8-1.9-2.1-1.9h-6.1V205.6z M130.1,213.8h6.8c1.7,0,2.7-0.8,2.7-2.1c0-1.4-0.9-2.1-2.7-2.1h-6.8V213.8z"/>
				<path fill="#F6921F" d="M152.6,198.3c0-0.3,0.2-0.5,0.5-0.5h3.2c0.3,0,0.5,0.2,0.5,0.5V209c0,3,1.7,5.1,4.7,5.1
					c3,0,4.7-2,4.7-5.1v-10.7c0-0.3,0.2-0.5,0.5-0.5h3.2c0.3,0,0.5,0.2,0.5,0.5V209c0,5.2-3.5,9.1-9,9.1c-5.5,0-9-3.9-9-9.1V198.3z"
					/>
				<path fill="#F6921F" d="M196.5,200.6c0.3,0.2,0.3,0.4,0.1,0.7l-1.8,2.3c-0.2,0.3-0.5,0.3-0.8,0c-1.7-1.3-3.8-2.1-6.3-2.1
					c-2.5,0-3.9,0.7-3.9,1.8c0,1.2,1.1,1.8,4.4,2.1c5.1,0.5,8.9,2.2,8.9,6.4c0,4-3.8,6.3-8.8,6.3c-3.7,0-6.5-0.9-9.2-3.1
					c-0.3-0.2-0.3-0.4,0-0.7l1.7-2.3c0.2-0.3,0.5-0.3,0.7-0.1c2,1.6,3.9,2.3,6.8,2.3c3.1,0,4.5-0.9,4.5-2.3c0-1.4-1.4-2.1-5.1-2.4
					c-4.9-0.4-8.2-1.9-8.2-6c0-3.6,3.5-6,8.3-6C191.1,197.5,194.2,198.6,196.5,200.6z"/>
				<path fill="#F6921F" d="M210,197.8c0.3,0,0.5,0.2,0.5,0.5v19c0,0.3-0.2,0.5-0.5,0.5h-3.2c-0.3,0-0.5-0.2-0.5-0.5v-19
					c0-0.3,0.2-0.5,0.5-0.5H210z"/>
				<path fill="#F6921F" d="M235.2,217.9c-0.3,0-0.4-0.1-0.6-0.3l-5-6.4l-5.1-7.2l-0.2,0l0.3,6.2v7.1c0,0.3-0.2,0.5-0.5,0.5H221
					c-0.3,0-0.5-0.2-0.5-0.5v-19c0-0.3,0.2-0.5,0.5-0.5h2.8c0.3,0,0.5,0.1,0.7,0.3l5.5,7l4.6,6.5l0.2,0l-0.3-6.2v-7
					c0-0.3,0.2-0.5,0.5-0.5h3.1c0.3,0,0.5,0.2,0.5,0.5v19c0,0.3-0.2,0.5-0.5,0.5H235.2z"/>
				<path fill="#F6921F" d="M264.2,197.8c0.3,0,0.5,0.2,0.5,0.5v2.9c0,0.3-0.2,0.5-0.5,0.5H253v3.8h9.8c0.3,0,0.5,0.2,0.5,0.5v2.9
					c0,0.3-0.2,0.5-0.5,0.5H253v4.3h11.4c0.3,0,0.5,0.2,0.5,0.5v3c0,0.3-0.2,0.5-0.5,0.5h-15.2c-0.3,0-0.5-0.2-0.5-0.5v-19
					c0-0.3,0.3-0.5,0.5-0.5H264.2z"/>
				<path fill="#F6921F" d="M290.6,200.6c0.3,0.2,0.3,0.4,0.1,0.7l-1.8,2.3c-0.2,0.3-0.5,0.3-0.8,0c-1.7-1.3-3.8-2.1-6.3-2.1
					c-2.5,0-3.9,0.7-3.9,1.8c0,1.2,1.1,1.8,4.4,2.1c5.1,0.5,8.9,2.2,8.9,6.4c0,4-3.8,6.3-8.8,6.3c-3.7,0-6.5-0.9-9.2-3.1
					c-0.3-0.2-0.3-0.4,0-0.7l1.7-2.3c0.2-0.3,0.5-0.3,0.7-0.1c2,1.6,3.9,2.3,6.8,2.3c3.1,0,4.5-0.9,4.5-2.3c0-1.4-1.4-2.1-5.1-2.4
					c-4.9-0.4-8.2-1.9-8.2-6c0-3.6,3.5-6,8.3-6C285.2,197.5,288.2,198.6,290.6,200.6z"/>
				<path fill="#F6921F" d="M316.4,200.6c0.3,0.2,0.3,0.4,0.1,0.7l-1.8,2.3c-0.2,0.3-0.5,0.3-0.8,0c-1.7-1.3-3.8-2.1-6.3-2.1
					c-2.5,0-3.9,0.7-3.9,1.8c0,1.2,1.1,1.8,4.4,2.1c5.1,0.5,8.9,2.2,8.9,6.4c0,4-3.8,6.3-8.8,6.3c-3.7,0-6.5-0.9-9.2-3.1
					c-0.3-0.2-0.3-0.4,0-0.7l1.7-2.3c0.2-0.3,0.5-0.3,0.7-0.1c2,1.6,3.9,2.3,6.8,2.3c3.1,0,4.5-0.9,4.5-2.3c0-1.4-1.4-2.1-5.1-2.4
					c-4.9-0.4-8.2-1.9-8.2-6c0-3.6,3.5-6,8.3-6C311,197.5,314.1,198.6,316.4,200.6z"/>
				<path fill="#F6921F" d="M355.6,197.8c0.3,0,0.5,0.2,0.5,0.5v2.9c0,0.3-0.2,0.5-0.5,0.5h-11.1v3.8h9.8c0.3,0,0.5,0.2,0.5,0.5v2.9
					c0,0.3-0.2,0.5-0.5,0.5h-9.8v4.3h11.4c0.3,0,0.5,0.2,0.5,0.5v3c0,0.3-0.2,0.5-0.5,0.5h-15.2c-0.3,0-0.5-0.2-0.5-0.5v-19
					c0-0.3,0.3-0.5,0.5-0.5H355.6z"/>
				<path fill="#F6921F" d="M380.6,217.9c-0.3,0-0.4-0.1-0.6-0.3l-5-6.4l-5.1-7.2l-0.2,0l0.3,6.2v7.1c0,0.3-0.2,0.5-0.5,0.5h-3.1
					c-0.3,0-0.5-0.2-0.5-0.5v-19c0-0.3,0.2-0.5,0.5-0.5h2.8c0.3,0,0.5,0.1,0.7,0.3l5.5,7l4.6,6.5l0.2,0l-0.3-6.2v-7
					c0-0.3,0.2-0.5,0.5-0.5h3.1c0.3,0,0.5,0.2,0.5,0.5v19c0,0.3-0.2,0.5-0.5,0.5H380.6z"/>
				<path fill="#F6921F" d="M412,207c0.3,0,0.5,0.2,0.5,0.5v9.9c0,0.3-0.2,0.5-0.5,0.5h-2.2c-0.3,0-0.5-0.1-0.6-0.4l-0.4-1.2
					c-1.4,1.3-3.3,1.9-5.7,1.9c-5.9,0-10-4.3-10-10.4c0-5.9,4.5-10.3,10.4-10.3c3.5,0,7,1.8,8.8,4.6c0.1,0.3,0.1,0.4-0.1,0.6
					l-2.3,1.7c-0.3,0.3-0.6,0.1-0.7-0.1c-1.5-1.9-3.2-2.8-5.7-2.8c-3.7,0-6.1,2.6-6.1,6.2s2.3,6.3,5.9,6.3c2.4,0,3.6-0.6,4.9-1.8
					v-4.9c0-0.3,0.2-0.5,0.5-0.5H412z"/>
				<path fill="#F6921F" d="M426,197.8c0.3,0,0.5,0.2,0.5,0.5v19c0,0.3-0.2,0.5-0.5,0.5h-3.2c-0.3,0-0.5-0.2-0.5-0.5v-19
					c0-0.3,0.2-0.5,0.5-0.5H426z"/>
				<path fill="#F6921F" d="M451.2,217.9c-0.3,0-0.4-0.1-0.6-0.3l-5-6.4l-5.1-7.2l-0.2,0l0.3,6.2v7.1c0,0.3-0.2,0.5-0.5,0.5H437
					c-0.3,0-0.5-0.2-0.5-0.5v-19c0-0.3,0.2-0.5,0.5-0.5h2.8c0.3,0,0.5,0.1,0.7,0.3l5.5,7l4.6,6.5l0.2,0l-0.3-6.2v-7
					c0-0.3,0.2-0.5,0.5-0.5h3.1c0.3,0,0.5,0.2,0.5,0.5v19c0,0.3-0.2,0.5-0.5,0.5H451.2z"/>
				<path fill="#F6921F" d="M480.2,197.8c0.3,0,0.5,0.2,0.5,0.5v2.9c0,0.3-0.2,0.5-0.5,0.5h-11.1v3.8h9.8c0.3,0,0.5,0.2,0.5,0.5v2.9
					c0,0.3-0.2,0.5-0.5,0.5h-9.8v4.3h11.4c0.3,0,0.5,0.2,0.5,0.5v3c0,0.3-0.2,0.5-0.5,0.5h-15.2c-0.3,0-0.5-0.2-0.5-0.5v-19
					c0-0.3,0.3-0.5,0.5-0.5H480.2z"/>
			</g>
		</g>
	</g>
</g>
</svg>
